<?xml version="1.0" standalone="no"?>
<!DOCTYPE svg PUBLIC "-//W3C//DTD SVG 20010904//EN"
 "http://www.w3.org/TR/2001/REC-SVG-20010904/DTD/svg10.dtd">
<svg version="1.0" xmlns="http://www.w3.org/2000/svg"
 width="500.000000pt" height="500.000000pt" viewBox="0 0 500.000000 500.000000"
 preserveAspectRatio="xMidYMid meet">
<metadata>
Created by potrace 1.16, written by Peter Selinger 2001-2019
</metadata>
<g transform="translate(0.000000,500.000000) scale(0.100000,-0.100000)"
fill="#000000" stroke="none">
<path d="M0 2500 l0 -2500 2500 0 2500 0 0 2500 0 2500 -2500 0 -2500 0 0
-2500z m3566 1330 c-14 -106 -25 -476 -18 -603 l7 -137 -42 0 c-49 0 -43 -15
-68 165 -33 240 -76 357 -158 430 -99 89 -198 108 -559 103 -278 -3 -297 -6
-339 -54 -41 -48 -43 -72 -47 -551 l-3 -463 -175 0 -174 0 0 408 c-1 413 -7
529 -34 581 -23 43 -77 72 -159 83 -121 16 -117 15 -117 51 l0 32 946 0 946 0
-6 -45z m-518 -987 c-5 -161 4 -643 16 -843 1 -22 -3 -25 -41 -28 -48 -4 -42
-17 -63 148 -14 106 -35 173 -71 228 -28 42 -29 47 -29 172 0 110 3 134 20
162 31 53 47 108 65 220 25 161 19 148 68 148 l42 0 -7 -207z m-706 -975 c3
-395 4 -415 24 -458 39 -82 86 -106 245 -123 l109 -11 0 -36 0 -35 -520 0
-520 0 0 35 0 36 91 12 c97 13 131 26 166 64 42 46 46 82 50 516 l5 412 173 0
174 0 3 -412z"/>
</g>
</svg>
